# xmcd
#
# Track frame offsets: 
#        150
#        20665
#        77212
#        100312
#        135175
#        166087
#
# Disc length: 2492 seconds
#
# Revision: 1
# Processed by: cddbd v1.5.2PL0 Copyright (c) Steve Scherf et al.
# Submitted via: ExactAudioCopy v0.95a5
#
DISCID=3e09ba06
DTITLE=Emerson, Lake and Palmer - Emerson, Lake and Palmer
DYEAR=1970
DGENRE=Progressive Rock
TTITLE0=The Barbarian
TTITLE1=Take A Pebble
TTITLE2=Knife Edge
TTITLE3=The Three Fates
TTITLE4=Tank
TTITLE5=Lucky Man
EXTD=YEAR: 1970
EXTT0=
EXTT1=
EXTT2=
EXTT3=
EXTT4=
EXTT5=
PLAYORDER=
